<svg xmlns="http://www.w3.org/2000/svg" xmlns:xlink="http://www.w3.org/1999/xlink" width="2645" zoomAndPan="magnify" viewBox="0 0 1983.75 1700.999932" height="2268" preserveAspectRatio="xMidYMid meet" version="1.0"><defs><clipPath id="5e7a265d82"><path d="M 193.160156 40.089844 L 1735.523438 40.089844 L 1735.523438 1582.453125 L 193.160156 1582.453125 Z M 193.160156 40.089844 " clip-rule="nonzero"/></clipPath></defs><g clip-path="url(#5e7a265d82)"><path fill="#ff2a2a" d="M 964.460938 40.027344 C 1388.808594 40.027344 1735.761719 386.976562 1735.761719 811.328125 C 1735.761719 1235.675781 1388.808594 1582.628906 964.460938 1582.628906 C 540.113281 1582.628906 193.160156 1235.675781 193.160156 811.328125 C 193.160156 386.980469 540.113281 40.027344 964.460938 40.027344 Z M 964.460938 40.027344 " fill-opacity="1" fill-rule="evenodd"/></g><path fill="#fffffe" d="M 551.535156 1140.4375 C 546.632812 1140.4375 542.65625 1144.414062 542.65625 1149.320312 C 542.65625 1154.222656 546.632812 1158.199219 551.535156 1158.199219 L 1377.386719 1158.199219 C 1382.289062 1158.199219 1386.269531 1154.222656 1386.269531 1149.320312 C 1386.269531 1144.414062 1382.292969 1140.4375 1377.386719 1140.4375 Z M 551.535156 1140.4375 " fill-opacity="1" fill-rule="nonzero"/><path fill="#fffffe" d="M 671.726562 684.722656 L 671.726562 636.710938 C 671.726562 631.808594 667.753906 627.835938 662.847656 627.835938 C 657.941406 627.835938 653.96875 631.808594 653.96875 636.710938 L 653.96875 684.722656 Z M 671.726562 684.722656 " fill-opacity="1" fill-rule="nonzero"/><path fill="#fffffe" d="M 1124.148438 521.347656 L 1124.148438 473.339844 C 1124.148438 468.4375 1120.171875 464.457031 1115.269531 464.457031 C 1110.363281 464.457031 1106.390625 468.433594 1106.390625 473.339844 L 1106.390625 521.347656 Z M 1124.148438 521.347656 " fill-opacity="1" fill-rule="nonzero"/><path fill="#fffffe" d="M 730.917969 618.191406 C 726.015625 618.191406 722.039062 622.167969 722.039062 627.070312 C 722.039062 631.972656 726.015625 635.953125 730.917969 635.953125 L 787.808594 635.953125 C 792.714844 635.953125 796.6875 631.976562 796.6875 627.070312 C 796.6875 622.167969 792.710938 618.191406 787.808594 618.191406 Z M 730.917969 618.191406 " fill-opacity="1" fill-rule="nonzero"/><path fill="#fffffe" d="M 811.398438 569.628906 C 806.496094 569.628906 802.519531 573.605469 802.519531 578.511719 C 802.519531 583.414062 806.496094 587.390625 811.398438 587.390625 L 959.863281 587.390625 C 964.765625 587.390625 968.742188 583.414062 968.742188 578.511719 C 968.742188 573.609375 964.765625 569.628906 959.863281 569.628906 Z M 811.398438 569.628906 " fill-opacity="1" fill-rule="nonzero"/><path fill="#fffffe" d="M 618.53125 504.417969 C 613.625 504.417969 609.648438 508.394531 609.648438 513.296875 C 609.648438 518.199219 613.625 522.179688 618.53125 522.179688 L 766.996094 522.179688 C 771.898438 522.179688 775.878906 518.203125 775.878906 513.296875 C 775.878906 508.390625 771.902344 504.417969 766.996094 504.417969 Z M 618.53125 504.417969 " fill-opacity="1" fill-rule="nonzero"/><path fill="#fffffe" d="M 1269.28125 571.019531 C 1264.378906 571.019531 1260.398438 574.996094 1260.398438 579.902344 C 1260.398438 584.804688 1264.375 588.78125 1269.28125 588.78125 L 1343.511719 588.78125 C 1348.414062 588.78125 1352.390625 584.804688 1352.390625 579.902344 C 1352.390625 575 1348.414062 571.019531 1343.511719 571.019531 Z M 1269.28125 571.019531 " fill-opacity="1" fill-rule="nonzero"/><path fill="#fffffe" d="M 1252.980469 702.835938 C 1248.078125 702.835938 1244.097656 706.8125 1244.097656 711.714844 C 1244.097656 716.621094 1248.074219 720.59375 1252.980469 720.59375 L 1367.796875 720.59375 C 1372.699219 720.59375 1376.675781 716.617188 1376.675781 711.714844 C 1376.675781 706.8125 1372.699219 702.835938 1367.796875 702.835938 Z M 1252.980469 702.835938 " fill-opacity="1" fill-rule="nonzero"/><path fill="#fffffe" d="M 705.652344 770.601562 L 705.652344 736.539062 C 705.652344 727.179688 701.816406 718.667969 695.640625 712.488281 C 689.464844 706.3125 680.949219 702.476562 671.589844 702.476562 L 654.101562 702.476562 C 644.746094 702.476562 636.234375 706.3125 630.054688 712.488281 C 623.875 718.667969 620.042969 727.179688 620.042969 736.539062 L 620.042969 770.601562 Z M 705.652344 770.601562 " fill-opacity="1" fill-rule="evenodd"/><path fill="#fffffe" d="M 956.285156 760.53125 L 1030.980469 760.53125 L 1030.980469 1004.886719 L 956.285156 1004.886719 Z M 956.285156 760.53125 " fill-opacity="1" fill-rule="evenodd"/><path fill="#fffffe" d="M 1096.398438 937.285156 L 1134.140625 937.285156 L 1134.140625 971.554688 L 1096.398438 971.554688 Z M 1096.398438 937.285156 " fill-opacity="1" fill-rule="evenodd"/><path fill="#fffffe" d="M 1096.398438 826.976562 L 1134.140625 826.976562 L 1134.140625 861.25 L 1096.398438 861.25 Z M 1096.398438 826.976562 " fill-opacity="1" fill-rule="evenodd"/><path fill="#fffffe" d="M 1096.398438 716.671875 L 1134.140625 716.671875 L 1134.140625 750.941406 L 1096.398438 750.941406 Z M 1096.398438 716.671875 " fill-opacity="1" fill-rule="evenodd"/><path fill="#fffffe" d="M 1158.074219 607.226562 L 1158.074219 573.164062 C 1158.074219 563.808594 1154.238281 555.292969 1148.0625 549.117188 C 1141.882812 542.9375 1133.371094 539.105469 1124.011719 539.105469 L 1106.523438 539.105469 C 1097.167969 539.105469 1088.652344 542.9375 1082.472656 549.117188 C 1076.296875 555.292969 1072.460938 563.808594 1072.460938 573.164062 L 1072.460938 607.226562 Z M 1158.074219 607.226562 " fill-opacity="1" fill-rule="evenodd"/><path fill="#fffffe" d="M 636.269531 1081 L 689.425781 1081 L 689.425781 1122.675781 L 636.269531 1122.675781 Z M 636.269531 1081 " fill-opacity="1" fill-rule="evenodd"/><path fill="#fffffe" d="M 631.429688 830.746094 L 694.265625 830.746094 C 699.167969 830.746094 703.148438 834.722656 703.148438 839.628906 C 703.148438 844.53125 699.171875 848.507812 694.265625 848.507812 L 631.429688 848.507812 C 626.523438 848.507812 622.546875 844.53125 622.546875 839.628906 C 622.550781 834.722656 626.523438 830.746094 631.429688 830.746094 Z M 729.367188 1122.675781 L 729.367188 788.363281 L 596.320312 788.363281 L 596.320312 1122.675781 L 618.507812 1122.675781 L 618.507812 1072.117188 C 618.507812 1067.214844 622.484375 1063.234375 627.390625 1063.234375 L 698.304688 1063.234375 C 703.210938 1063.234375 707.183594 1067.210938 707.183594 1072.117188 L 707.183594 1122.675781 Z M 631.429688 888.195312 L 694.265625 888.195312 C 699.167969 888.195312 703.148438 892.171875 703.148438 897.078125 C 703.148438 901.980469 699.171875 905.957031 694.265625 905.957031 L 631.429688 905.957031 C 626.523438 905.957031 622.546875 901.980469 622.546875 897.078125 C 622.550781 892.171875 626.523438 888.195312 631.429688 888.195312 Z M 631.429688 945.644531 L 694.265625 945.644531 C 699.167969 945.644531 703.148438 949.621094 703.148438 954.523438 C 703.148438 959.425781 699.171875 963.40625 694.265625 963.40625 L 631.429688 963.40625 C 626.523438 963.40625 622.546875 959.429688 622.546875 954.523438 C 622.550781 949.621094 626.523438 945.644531 631.429688 945.644531 Z M 622.550781 1011.976562 C 622.550781 1007.070312 626.527344 1003.097656 631.429688 1003.097656 L 694.269531 1003.097656 C 699.171875 1003.097656 703.152344 1007.074219 703.152344 1011.976562 C 703.152344 1016.878906 699.175781 1020.855469 694.269531 1020.855469 L 631.429688 1020.855469 C 626.523438 1020.855469 622.550781 1016.878906 622.550781 1011.976562 Z M 622.550781 1011.976562 " fill-opacity="1" fill-rule="evenodd"/><path fill="#fffffe" d="M 825.644531 887.652344 C 825.644531 882.75 829.621094 878.773438 834.523438 878.773438 L 853.375 878.773438 C 858.28125 878.773438 862.257812 882.75 862.257812 887.652344 C 862.257812 892.558594 858.28125 896.53125 853.375 896.53125 L 834.523438 896.53125 C 829.621094 896.53125 825.644531 892.558594 825.644531 887.652344 Z M 880.175781 1122.675781 L 880.175781 844.019531 L 747.128906 844.019531 L 747.128906 1122.675781 L 769.316406 1122.675781 L 769.316406 1072.117188 C 769.316406 1067.214844 773.292969 1063.234375 778.195312 1063.234375 L 849.109375 1063.234375 C 854.011719 1063.234375 857.992188 1067.210938 857.992188 1072.117188 L 857.992188 1122.675781 Z M 825.644531 1019.605469 C 825.644531 1014.703125 829.621094 1010.726562 834.523438 1010.726562 L 853.375 1010.726562 C 858.28125 1010.726562 862.257812 1014.703125 862.257812 1019.605469 C 862.257812 1024.507812 858.28125 1028.484375 853.375 1028.484375 L 834.523438 1028.484375 C 829.621094 1028.484375 825.644531 1024.507812 825.644531 1019.605469 Z M 825.644531 975.621094 C 825.644531 970.71875 829.621094 966.738281 834.523438 966.738281 L 853.375 966.738281 C 858.28125 966.738281 862.257812 970.714844 862.257812 975.621094 C 862.257812 980.523438 858.28125 984.5 853.375 984.5 L 834.523438 984.5 C 829.621094 984.5 825.644531 980.523438 825.644531 975.621094 Z M 825.644531 931.636719 C 825.644531 926.734375 829.621094 922.753906 834.523438 922.753906 L 853.375 922.753906 C 858.28125 922.753906 862.257812 926.730469 862.257812 931.636719 C 862.257812 936.539062 858.28125 940.515625 853.375 940.515625 L 834.523438 940.515625 C 829.621094 940.515625 825.644531 936.539062 825.644531 931.636719 Z M 792.785156 922.753906 C 797.6875 922.753906 801.664062 926.730469 801.664062 931.636719 C 801.664062 936.539062 797.6875 940.515625 792.785156 940.515625 L 773.929688 940.515625 C 769.03125 940.515625 765.050781 936.539062 765.050781 931.636719 C 765.050781 926.734375 769.027344 922.753906 773.929688 922.753906 Z M 773.929688 966.742188 L 792.785156 966.742188 C 797.6875 966.742188 801.664062 970.71875 801.664062 975.621094 C 801.664062 980.527344 797.6875 984.5 792.785156 984.5 L 773.929688 984.5 C 769.03125 984.5 765.050781 980.523438 765.050781 975.621094 C 765.054688 970.71875 769.03125 966.742188 773.929688 966.742188 Z M 773.929688 1010.722656 L 792.785156 1010.722656 C 797.6875 1010.722656 801.664062 1014.699219 801.664062 1019.601562 C 801.664062 1024.503906 797.6875 1028.484375 792.785156 1028.484375 L 773.929688 1028.484375 C 769.03125 1028.484375 765.050781 1024.507812 765.050781 1019.601562 C 765.054688 1014.699219 769.03125 1010.722656 773.929688 1010.722656 Z M 792.785156 878.769531 C 797.6875 878.769531 801.664062 882.746094 801.664062 887.648438 C 801.664062 892.554688 797.6875 896.527344 792.785156 896.527344 L 773.929688 896.527344 C 769.03125 896.527344 765.050781 892.550781 765.050781 887.648438 C 765.050781 882.746094 769.027344 878.769531 773.929688 878.769531 Z M 792.785156 878.769531 " fill-opacity="1" fill-rule="evenodd"/><path fill="#fffffe" d="M 787.078125 1081 L 840.230469 1081 L 840.230469 1122.675781 L 787.078125 1122.675781 Z M 787.078125 1081 " fill-opacity="1" fill-rule="evenodd"/><path fill="#fffffe" d="M 937.882812 1081 L 991.039062 1081 L 991.039062 1122.675781 L 937.882812 1122.675781 Z M 937.882812 1081 " fill-opacity="1" fill-rule="evenodd"/><path fill="#fffffe" d="M 1030.984375 1122.675781 L 1030.984375 1022.652344 L 947.410156 1022.652344 C 942.507812 1022.652344 938.53125 1018.675781 938.53125 1013.773438 L 938.53125 751.65625 C 938.53125 746.753906 942.507812 742.773438 947.410156 742.773438 L 1030.984375 742.773438 L 1030.984375 702.1875 L 897.941406 702.1875 L 897.941406 1122.675781 L 920.125 1122.675781 L 920.125 1072.117188 C 920.125 1067.214844 924.101562 1063.234375 929.007812 1063.234375 L 999.921875 1063.234375 C 1004.824219 1063.234375 1008.804688 1067.210938 1008.804688 1072.117188 L 1008.804688 1122.675781 Z M 1030.984375 1122.675781 " fill-opacity="1" fill-rule="evenodd"/><path fill="#fffffe" d="M 1088.691406 1081 L 1141.84375 1081 L 1141.84375 1122.675781 L 1088.691406 1122.675781 Z M 1088.691406 1081 " fill-opacity="1" fill-rule="evenodd"/><path fill="#fffffe" d="M 1181.789062 1122.675781 L 1181.789062 624.992188 L 1048.742188 624.992188 L 1048.742188 1122.679688 L 1070.925781 1122.679688 L 1070.925781 1072.121094 C 1070.925781 1067.21875 1074.902344 1063.238281 1079.804688 1063.238281 L 1150.71875 1063.238281 C 1155.621094 1063.238281 1159.601562 1067.214844 1159.601562 1072.121094 L 1159.601562 1122.679688 L 1181.789062 1122.679688 Z M 1143.015625 989.316406 L 1087.515625 989.316406 C 1082.613281 989.316406 1078.640625 985.339844 1078.640625 980.433594 L 1078.640625 928.402344 C 1078.640625 923.5 1082.613281 919.523438 1087.515625 919.523438 L 1143.015625 919.523438 C 1147.917969 919.523438 1151.894531 923.5 1151.894531 928.402344 L 1151.894531 980.433594 C 1151.898438 985.339844 1147.921875 989.316406 1143.015625 989.316406 Z M 1143.015625 879.007812 L 1087.515625 879.007812 C 1082.613281 879.007812 1078.640625 875.03125 1078.640625 870.128906 L 1078.640625 818.097656 C 1078.640625 813.195312 1082.613281 809.21875 1087.515625 809.21875 L 1143.015625 809.21875 C 1147.917969 809.21875 1151.894531 813.195312 1151.894531 818.097656 L 1151.894531 870.128906 C 1151.898438 875.03125 1147.921875 879.007812 1143.015625 879.007812 Z M 1143.015625 768.703125 L 1087.515625 768.703125 C 1082.613281 768.703125 1078.640625 764.726562 1078.640625 759.824219 L 1078.640625 707.792969 C 1078.640625 702.890625 1082.613281 698.910156 1087.515625 698.910156 L 1143.015625 698.910156 C 1147.917969 698.910156 1151.894531 702.886719 1151.894531 707.792969 L 1151.894531 759.824219 C 1151.898438 764.726562 1147.921875 768.703125 1143.015625 768.703125 Z M 1143.015625 768.703125 " fill-opacity="1" fill-rule="evenodd"/><path fill="#fffffe" d="M 1332.597656 1122.675781 L 1332.597656 858.378906 L 1199.550781 858.378906 L 1199.550781 1122.675781 L 1221.734375 1122.675781 L 1221.734375 1072.117188 C 1221.734375 1067.214844 1225.710938 1063.234375 1230.617188 1063.234375 L 1301.53125 1063.234375 C 1306.433594 1063.234375 1310.410156 1067.210938 1310.410156 1072.117188 L 1310.410156 1122.675781 Z M 1279.433594 993.414062 C 1279.433594 988.511719 1283.410156 984.535156 1288.3125 984.535156 L 1307.164062 984.535156 C 1312.066406 984.535156 1316.046875 988.511719 1316.046875 993.414062 C 1316.046875 998.320312 1312.070312 1002.292969 1307.164062 1002.292969 L 1288.3125 1002.292969 C 1283.410156 1002.296875 1279.433594 998.320312 1279.433594 993.414062 Z M 1276.695312 928.199219 C 1276.695312 923.296875 1280.671875 919.320312 1285.578125 919.320312 L 1304.425781 919.320312 C 1309.332031 919.320312 1313.308594 923.296875 1313.308594 928.199219 C 1313.308594 933.101562 1309.332031 937.078125 1304.425781 937.078125 L 1285.578125 937.078125 C 1280.671875 937.082031 1276.695312 933.105469 1276.695312 928.199219 Z M 1243.835938 919.320312 C 1248.738281 919.320312 1252.714844 923.296875 1252.714844 928.199219 C 1252.714844 933.101562 1248.738281 937.078125 1243.835938 937.078125 L 1224.988281 937.078125 C 1220.082031 937.078125 1216.105469 933.101562 1216.105469 928.199219 C 1216.105469 923.296875 1220.082031 919.320312 1224.988281 919.320312 Z M 1218.84375 993.414062 C 1218.84375 988.511719 1222.816406 984.535156 1227.71875 984.535156 L 1246.570312 984.535156 C 1251.476562 984.535156 1255.453125 988.511719 1255.453125 993.414062 C 1255.453125 998.320312 1251.476562 1002.292969 1246.570312 1002.292969 L 1227.71875 1002.292969 C 1222.816406 1002.296875 1218.84375 998.320312 1218.84375 993.414062 Z M 1218.84375 993.414062 " fill-opacity="1" fill-rule="evenodd"/><path fill="#fffffe" d="M 1239.5 1081 L 1292.652344 1081 L 1292.652344 1122.675781 L 1239.5 1122.675781 Z M 1239.5 1081 " fill-opacity="1" fill-rule="evenodd"/></svg>